<?xml version="1.0" encoding="utf-8"?>
<!-- Generator: Adobe Illustrator 24.1.2, SVG Export Plug-In . SVG Version: 6.00 Build 0)  -->
<svg version="1.1" id="Layer_1" xmlns="http://www.w3.org/2000/svg" xmlns:xlink="http://www.w3.org/1999/xlink" x="0px" y="0px"
	 viewBox="0 0 107.1 12.4" style="enable-background:new 0 0 107.1 12.4;" xml:space="preserve">
<style type="text/css">
	.st0{clip-path:url(#SVGID_2_);}
	.st1{fill-rule:evenodd;clip-rule:evenodd;fill:#FFFFFF;}
	.st2{fill:#FFFFFF;}
</style>
<g>
	<defs>
		<rect id="SVGID_1_" x="100" y="0" width="7.1" height="12.4"/>
	</defs>
	<clipPath id="SVGID_2_">
		<use xlink:href="#SVGID_1_"  style="overflow:visible;"/>
	</clipPath>
	<g class="st0">
		<path class="st1" d="M107.1,6.2L101,0l-1,1l5.2,5.2l-5.2,5.2l1,1L107.1,6.2z"/>
	</g>
</g>
<g>
	<path class="st2" d="M6.5,7.2H2.4v5H0V0.2h7.2v1.9H2.4v3.3h4.1V7.2z"/>
	<path class="st2" d="M10.8,7.5v4.8H8.4V0.2h3.9c1.2,0,2.1,0.3,2.8,0.9c0.7,0.6,1,1.5,1,2.6c0,0.6-0.1,1.2-0.4,1.6
		c-0.3,0.5-0.7,0.8-1.2,1.1c0.6,0.2,1.1,0.6,1.3,1c0.3,0.5,0.4,1.1,0.4,1.8v0.9c0,0.3,0,0.7,0.1,1.1c0.1,0.4,0.2,0.7,0.4,0.8v0.2
		h-2.4c-0.2-0.2-0.3-0.5-0.4-0.9s-0.1-0.8-0.1-1.2V9.4c0-0.6-0.1-1.1-0.4-1.4S13,7.5,12.5,7.5H10.8z M10.8,5.6h1.6
		c0.5,0,0.8-0.1,1.1-0.4c0.2-0.3,0.4-0.7,0.4-1.3c0-0.6-0.1-1-0.4-1.3c-0.2-0.3-0.6-0.5-1.1-0.5h-1.6V5.6z"/>
	<path class="st2" d="M24.5,7h-4.1v3.4h4.8v1.9h-7.1V0.2h7.1v1.9h-4.8v3h4.1V7z"/>
	<path class="st2" d="M32.9,7h-4.1v3.4h4.8v1.9h-7.1V0.2h7.1v1.9h-4.8v3h4.1V7z"/>
	<path class="st2" d="M43.9,9.1c0-0.5-0.1-0.8-0.4-1.1c-0.2-0.3-0.7-0.5-1.3-0.8c-1.3-0.4-2.2-0.9-2.8-1.5c-0.6-0.6-0.9-1.3-0.9-2.3
		c0-1,0.4-1.8,1.1-2.4C40.3,0.3,41.2,0,42.4,0c1.2,0,2.1,0.3,2.8,1c0.7,0.7,1.1,1.6,1,2.6l0,0h-2.3c0-0.6-0.1-1-0.4-1.3
		c-0.3-0.3-0.7-0.5-1.2-0.5c-0.5,0-0.8,0.1-1.1,0.4c-0.3,0.3-0.4,0.6-0.4,1.1c0,0.4,0.1,0.7,0.4,1c0.3,0.3,0.8,0.5,1.5,0.9
		c1.1,0.4,2,0.9,2.6,1.5c0.6,0.6,0.9,1.4,0.9,2.4c0,1-0.3,1.9-1,2.5c-0.7,0.6-1.6,0.9-2.8,0.9c-1.2,0-2.1-0.3-3-1
		c-0.8-0.7-1.3-1.6-1.2-2.9l0,0h2.3c0,0.7,0.2,1.3,0.5,1.6c0.3,0.3,0.8,0.5,1.4,0.5c0.5,0,0.9-0.1,1.1-0.4
		C43.8,9.9,43.9,9.6,43.9,9.1z"/>
	<path class="st2" d="M50.2,12.3h-2.3V0.2h2.3V12.3z"/>
	<path class="st2" d="M60.2,10.5c-0.3,0.5-0.8,1-1.5,1.4c-0.7,0.4-1.5,0.6-2.5,0.6c-1.3,0-2.3-0.4-3.1-1.1c-0.8-0.8-1.2-1.8-1.2-3.2
		V4.4c0-1.4,0.4-2.5,1.1-3.2c0.8-0.8,1.8-1.1,3-1.1c1.3,0,2.3,0.3,3,1c0.7,0.7,1,1.6,1,2.8l0,0h-2.2c0-0.7-0.2-1.2-0.5-1.5
		c-0.3-0.3-0.7-0.5-1.3-0.5c-0.6,0-1,0.2-1.4,0.6s-0.5,1-0.5,1.9v3.7c0,0.8,0.2,1.5,0.5,1.9c0.3,0.4,0.8,0.6,1.4,0.6
		c0.5,0,0.8-0.1,1-0.2c0.2-0.1,0.4-0.3,0.6-0.6V7.6h-1.6V6h4V10.5z"/>
	<path class="st2" d="M70.4,12.3h-2.3l-3.7-7.7l0,0v7.7H62V0.2h2.4L68,7.9l0,0V0.2h2.3V12.3z"/>
	<path class="st2" d="M84.1,0.2v8.2c0,1.3-0.4,2.3-1.1,3c-0.8,0.7-1.7,1-3,1s-2.2-0.4-3-1.1c-0.8-0.7-1.1-1.7-1.1-3V0.2h2.4v8.2
		c0,0.7,0.2,1.3,0.5,1.6c0.3,0.3,0.7,0.5,1.3,0.5c0.6,0,1-0.2,1.3-0.5s0.4-0.9,0.4-1.7V0.2H84.1z"/>
	<path class="st2" d="M88.1,7.9v4.3h-2.4V0.2H90c1.2,0,2.2,0.4,2.9,1.1c0.7,0.7,1,1.6,1,2.8c0,1.2-0.3,2.1-1,2.8
		c-0.7,0.7-1.7,1.1-2.9,1.1H88.1z M88.1,6H90c0.5,0,0.9-0.2,1.2-0.6s0.4-0.8,0.4-1.4c0-0.6-0.1-1.1-0.4-1.4S90.5,2.1,90,2.1h-1.8V6z
		"/>
</g>
</svg>
